<!DOCTYPE svg PUBLIC "-//W3C//DTD SVG 1.1//EN" "http://www.w3.org/Graphics/SVG/1.1/DTD/svg11.dtd">
<!-- Uploaded to: SVG Repo, www.svgrepo.com, Transformed by: SVG Repo Mixer Tools -->
<svg fill="#002aff" height="800px" width="800px" version="1.1" id="Icons" xmlns="http://www.w3.org/2000/svg" xmlns:xlink="http://www.w3.org/1999/xlink" viewBox="0 0 32 32" xml:space="preserve" stroke="#002aff">
<g id="SVGRepo_bgCarrier" stroke-width="0"/>
<g id="SVGRepo_tracerCarrier" stroke-linecap="round" stroke-linejoin="round"/>
<g id="SVGRepo_iconCarrier"> <g> <path d="M24,32c-0.1,0-0.3,0-0.4-0.1c-3.5-1.6-7.6-4.5-7.6-13.3c0-0.3,0.2-0.6,0.4-0.8c0.3-0.2,0.6-0.2,0.9-0.1 c2.2,0.7,4.4,0.1,6-1.4c0.4-0.4,1-0.4,1.4,0c1.6,1.5,3.8,2.1,6,1.4c0.3-0.1,0.6,0,0.9,0.1c0.3,0.2,0.4,0.5,0.4,0.8 c0,8.7-4.1,11.7-7.6,13.3C24.3,32,24.1,32,24,32z"/> </g> <path d="M14.1,20.3C12.8,19.5,12,17.9,12,16c0-2.8,1.8-5,4-5c2.2,0,3.9,2.2,4,4.9c0.7-0.2,1.4-0.5,2-1.1c1.2-1.1,3-1.1,4.1,0 c0.3,0.3,0.6,0.5,0.9,0.7v-2.6c-1.4-0.4-2.5-1.5-2.9-2.9H7.9c-0.4,1.4-1.5,2.5-2.9,2.9v6.3c1.4,0.4,2.5,1.5,2.9,2.9h6.3 C14.1,21.5,14.1,20.9,14.1,20.3z"/> <path d="M14.6,24H7c-0.6,0-1-0.4-1-1c0-1.1-0.9-2-2-2c-0.6,0-1-0.4-1-1v-8c0-0.6,0.4-1,1-1c1.1,0,2-0.9,2-2c0-0.6,0.4-1,1-1h18 c0.6,0,1,0.4,1,1c0,1.1,0.9,2,2,2c0.6,0,1,0.4,1,1v4c0.4,0,0.7-0.1,1.1-0.2c0.6-0.2,1.3-0.2,1.9,0V6c0-0.6-0.4-1-1-1H1 C0.4,5,0,5.4,0,6v20c0,0.6,0.4,1,1,1h14.6C15.2,26.1,14.9,25.1,14.6,24z"/> </g>
</svg>